<?xml version="1.0" encoding="UTF-8"?>
<!DOCTYPE svg PUBLIC "-//W3C//DTD SVG 1.1//EN" "http://www.w3.org/Graphics/SVG/1.1/DTD/svg11.dtd">
<!-- Creator: CorelDRAW 2020 (64-Bit) -->
<svg xmlns="http://www.w3.org/2000/svg" xml:space="preserve" width="11.7365mm" height="11.7366mm" version="1.1" style="shape-rendering:geometricPrecision; text-rendering:geometricPrecision; image-rendering:optimizeQuality; fill-rule:evenodd; clip-rule:evenodd"
viewBox="0 0 97 97"
 xmlns:xlink="http://www.w3.org/1999/xlink"
 xmlns:xodm="http://www.corel.com/coreldraw/odm/2003">
 <defs>
  <style type="text/css">
   <![CDATA[
    .fil1 {fill:white}
    .fil0 {fill:white;fill-rule:nonzero}
   ]]>
  </style>
 </defs>
 <g id="Layer_x0020_1">
  <metadata id="CorelCorpID_0Corel-Layer"/>
  <path class="fil0" d="M48.5 0c13.39,0 25.52,5.43 34.3,14.21 8.77,8.78 14.2,20.9 14.2,34.29 0,13.39 -5.43,25.52 -14.2,34.29 -8.78,8.78 -20.9,14.21 -34.3,14.21 -13.39,0 -25.52,-5.43 -34.29,-14.21 -8.78,-8.78 -14.2,-20.9 -14.2,-34.29 0,-13.39 5.43,-25.52 14.2,-34.29 8.78,-8.78 20.9,-14.21 34.29,-14.21zm32.32 16.18c-8.27,-8.27 -19.7,-13.39 -32.32,-13.39 -12.62,0 -24.05,5.12 -32.32,13.39 -8.27,8.27 -13.39,19.7 -13.39,32.32 0,12.62 5.12,24.05 13.39,32.32 8.27,8.27 19.7,13.39 32.32,13.39 12.62,0 24.05,-5.12 32.32,-13.39 8.27,-8.27 13.39,-19.7 13.39,-32.32 0,-12.62 -5.12,-24.05 -13.39,-32.32z"/>
  <path class="fil1" d="M45.56 35.54c-1.22,3.73 0.61,3.04 -2.79,4.5 -1.28,0.55 -1.31,0.91 -2.6,0.05 -0.65,-0.44 -1.52,-1.12 -2.33,-1.34 -0.99,0.65 -2.32,2.14 -3.17,3 -1.37,1.39 -1.17,1.16 0.84,3.79 0.74,0.98 0.44,1.05 -0.02,2.14 -1.2,2.82 -0.54,1.96 -3.49,2.73 -1.7,0.45 -1.58,0.2 -1.5,4.29 0.05,2.66 -0.18,2.27 3.05,2.91 1.4,0.28 1.33,0.87 1.81,2.06 0.54,1.33 0.9,1.48 0.08,2.73 -0.48,0.74 -1.15,1.61 -1.37,2.56 0.37,0.58 3.56,3.93 4.24,3.96 1.03,-0.23 1.62,-0.9 2.35,-1.44 1.09,-0.8 1.35,-0.27 3.95,0.82 1.49,0.62 0.53,1.7 1.57,4.15 1.29,0.15 4.23,0.24 5.53,0.01 0.82,-0.81 0.68,-3.07 1.19,-3.78 0.42,-0.59 2.51,-1.22 3.37,-1.6 -0.06,-0.52 -0.8,-1.44 -1.11,-1.71 -0.82,-0.72 -1.53,-0.33 -3.02,-0.33 -1.65,0 -3.28,-0.79 -4.6,-1.38 -2.25,-1 -1.51,-0.32 -3.93,-1.99 -2.21,-1.53 -4,-4.17 -4,-8.06 0,-8.31 11.38,-13.64 17.59,-4.44 1.43,2.12 3.73,3.66 3.73,7.55 0,0.76 -0.19,1.68 0.13,2.26 0.3,0.55 0.71,0.98 1.39,1.15 0.24,-0.55 0.27,-1.26 0.53,-1.89 0.33,-0.8 0.81,-0.7 1.77,-0.89 2.74,-0.52 2.66,-0.56 2.44,-5.61 -0.01,-0.17 -0.02,-0.56 -0.05,-0.71 -0.3,-1.49 -3.02,-0.69 -3.92,-1.51 -0.15,-0.14 -1.41,-3.21 -1.41,-3.39 -0.03,-0.61 1.38,-2.12 1.66,-2.96 0.31,-0.92 -1.74,-2.53 -2.39,-3.17 -0.51,-0.5 -1.15,-1.59 -2.15,-1.21 -0.9,0.34 -2.1,1.86 -3,1.71 -0.23,-0.04 -3.33,-1.38 -3.4,-1.43 -0.57,-0.52 -0.74,-2.82 -1.15,-3.63 -1.43,-0.15 -4.71,-0.25 -5.84,0.12zm20.95 4.48c0.68,0.5 2.44,0.55 1.9,-0.81 -0.17,-0.43 -0.78,-0.47 -1.34,-0.37 -0.66,0.12 -0.65,0.52 -0.55,1.18zm-41.26 21.08l2.11 -0.11c0.13,-0.55 0.16,-0.76 -0.04,-1.23 -0.7,-0.1 -6.63,-0.6 -4.51,1.09 0.43,0.34 1.82,0.25 2.45,0.25zm-2.69 -4.96l-0.05 1.22c2.07,0.24 2.03,0.16 4.14,0.15 0.63,0 1,-0.09 0.96,-0.79 -0.04,-0.72 -0.45,-0.68 -1.11,-0.68l-3.94 0.09zm0.07 -2.06c0.71,0.22 4.01,0.18 4.83,0.03l0.08 -1.33 -3.05 -0.13 -0.93 0c-1.08,0 -1.15,0.3 -0.92,1.42zm48.48 -13.77c6.55,0 6.36,0.46 6.14,-1.37 -1.77,-0.16 -4.28,-0.06 -6.14,-0.06 -1.35,0 -1.34,1.43 0,1.43zm-0.93 6.75c0.65,0 6.67,0.13 6.98,-0.17 0.4,-0.38 0.4,-1.33 -0.76,-1.33l-6.55 0c-1.02,0 -3.61,-0.35 -3.49,0.85 0.09,0.92 2.14,0.65 3.82,0.65zm4.51 -3.36c2.21,0 2.74,0.26 2.65,-0.82 -0.07,-0.96 -1.26,-0.72 -3.27,-0.68 -1.36,0.03 -7.1,-0.29 -7.57,0.27 -0.24,0.29 -0.13,0.83 0.11,1 0.46,0.34 7.21,0.22 8.08,0.22zm-18.7 -13.1c0,1.56 -0.08,5.83 0.17,6.9 0.62,0.21 0.46,0.3 1.12,0.07 0.56,-2.03 -0.31,-6.44 0.28,-8.26 1.18,-0.55 2.71,0.51 2.14,-1.45 -0.5,-0.18 -2.54,-0.28 -3.2,-0.1 -0.72,0.2 -0.51,1.29 -0.51,2.84zm-8.07 45.43l-11.02 0.11c-0.6,0.02 -0.73,-0.07 -0.95,0.29 -0.14,0.23 -0.13,0.78 0.03,0.96 0.42,0.46 9.82,0.26 12.29,0.25 1.44,-0.01 1.05,-0.21 1.17,-0.36 0.25,-0.32 0.37,-2.46 0.01,-2.81 -0.02,-0.02 -1.05,-0.73 -1.27,0.74 -0.07,0.47 -0.03,0.53 -0.26,0.81zm-16.85 -43.77c2.1,0.48 2.73,-0.89 2.7,1.92l0.03 5.65c0.72,-0.15 1.73,-1.26 2.21,-1.74 0.98,-1 1.27,-0.92 2.8,-1.04 0.04,-0.93 -0.19,-3.8 0.19,-4.34 0.26,-0.28 -0.18,-0.1 0.54,-0.27l2.22 -0.15c-0.06,-0.52 -0.2,-0.52 -0.55,-0.98l-2.81 -3.56c-0.62,-0.77 -1.32,-2 -2.08,-2.68 -0.59,0.25 -1.53,2.01 -2,2.61 -0.3,0.38 -0.4,0.5 -0.67,0.89 -0.51,0.74 -2.48,3.1 -2.56,3.69zm11.85 -7.4c1.27,0.54 2.56,-0.59 2.72,1.08 0.03,0.28 0.02,0.8 0.03,1.1 0.02,1.26 -0.18,5.89 0.19,6.27 0.26,0.28 -0.09,0.13 0.54,0.2l2.49 -0.01c2.43,0.01 1.94,0.92 1.95,-6 0,-1.52 -0.05,-1.98 0.21,-2.39l2.56 -0.11c-0.07,-1 -1.98,-3.02 -2.6,-3.82 -0.53,-0.68 -0.88,-1.17 -1.42,-1.84 -0.47,-0.59 -0.97,-1.28 -1.48,-1.74 -0.88,0.76 -3.79,5.31 -4.58,6.24 -0.44,0.52 -0.5,0.38 -0.6,1.01zm-20.48 15.56c0.25,1.25 0.12,3.67 0.12,5.11 0,5.88 -0.87,5.55 3.8,5.28 0.64,-0.03 0.61,0 0.99,-0.26 0.57,-1.96 -0.28,-7.58 0.19,-10.05l2.83 -0.23c-0.44,-1.39 -1.83,-2.71 -2.59,-3.79 -0.47,-0.67 -2.29,-3.36 -2.83,-3.57l-4.96 6.77c-0.68,1.06 0.39,0.44 2.45,0.74zm5 31.19c0.62,-0.44 1.44,-0.85 2.26,-1.26 0.68,-0.35 1.57,-1.07 2.34,-1l0.03 4.79c0,0.8 -0.19,0.86 -0.82,1.18 -1.23,0.61 -2.93,1.72 -3.81,2.04l-0.01 -5.74zm-5.69 -3.69c0.47,-0.35 4.31,-2.52 4.64,-2.57 0.41,-0.06 4.2,2.03 4.81,2.34 -0.23,0.45 0.32,0.11 -1.15,0.83 -0.96,0.47 -3.22,1.95 -3.54,1.94 -0.3,-0.01 -4.5,-2.26 -4.76,-2.54zm-2.16 0.93l0.05 6.84c1.17,1.04 3.72,2.02 5.12,2.82 2.4,1.39 1.52,1.24 5.3,-0.81 1.19,-0.65 2.19,-1.21 3.4,-1.89 0.25,-2.42 0.08,-5.88 0.05,-8.34 -1.06,-0.67 -2.4,-1.46 -3.55,-2.08 -4.51,-2.46 -2.7,-2.15 -7.54,0.48 -2.4,1.3 -2.83,1.35 -2.83,2.98zm44.64 -46.48c0.47,-0.38 4.61,-2.69 5.14,-2.63 0.5,0.05 4.75,2.42 5.26,2.76 -0.99,0.61 -4.47,2.69 -5.28,2.78 -0.46,0.05 -3.89,-1.82 -4.74,-2.31 -0.66,-0.37 -0.2,0.07 -0.56,-0.43l0.18 -0.16zm-2.47 9.18l3.72 2.04c4.75,2.57 3.37,2.21 7.77,-0.19 4.68,-2.55 3.81,-1.45 3.81,-7.44 0,-0.88 -0,-1.76 -0.02,-2.65 -0.02,-1.45 0.16,-1.26 -0.88,-1.8 -1.03,-0.53 -6.4,-3.53 -7.06,-3.46 -0.26,0.03 -6.36,3.23 -6.98,3.6 -0.72,0.44 -0.47,1.23 -0.47,2.13 -0,1.55 -0.06,6.99 0.1,7.77zm10.31 43.52c-0.82,1.87 -3.75,0.83 -2.92,-1.15 0.73,-1.76 3.7,-0.63 2.92,1.15zm-25.69 -20.1c-0.78,1.21 -0.07,3.76 0.37,4.96 0.42,1.14 1.09,1.63 1.79,2.25 2.38,2.13 5.03,1 6.78,1.19l5.22 5.93c0.37,0.44 0.75,0.76 1.12,1.21l4.29 4.72c0.73,0.72 1.33,1.66 2.15,2.37 3.38,2.92 8.23,-0.79 6.17,-4.61 -0.56,-1.04 -1.27,-1.54 -2.24,-2.27l-8.38 -7.32c-5.39,-5.11 -4.21,-3.13 -4.21,-6.98 0,-3.67 -2.9,-6.44 -6.36,-6.44 -3.95,0 -1.6,1.55 -0.23,2.79 1.26,1.15 2,1.89 1.08,4.18 -0.34,0.84 -0.76,1.03 -1.72,1.39 -1.3,0.49 -1.49,0.38 -2.28,-0.48 -0.56,-0.61 -2.64,-2.68 -3.53,-2.88z"/>
 </g>
</svg>
