<?xml version="1.0" encoding="UTF-8"?>
<!DOCTYPE svg PUBLIC "-//W3C//DTD SVG 1.1//EN" "http://www.w3.org/Graphics/SVG/1.1/DTD/svg11.dtd">
<!-- Creator: CorelDRAW 2020 (64-Bit) -->
<svg xmlns="http://www.w3.org/2000/svg" xml:space="preserve" width="4.017mm" height="4.0168mm" version="1.1" style="shape-rendering:geometricPrecision; text-rendering:geometricPrecision; image-rendering:optimizeQuality; fill-rule:evenodd; clip-rule:evenodd"
viewBox="0 0 311.79 311.77"
 xmlns:xlink="http://www.w3.org/1999/xlink"
 xmlns:xodm="http://www.corel.com/coreldraw/odm/2003">
 <defs>
  <style type="text/css">
   <![CDATA[
    .fil1 {fill:#FEFEFE}
    .fil0 {fill:#EF7F1A}
   ]]>
  </style>
 </defs>
 <g id="Layer_x0020_1">
  <metadata id="CorelCorpID_0Corel-Layer"/>
  <path class="fil0" d="M155.92 -0.01c86.09,0 155.87,69.8 155.87,155.9 0,86.09 -69.79,155.89 -155.87,155.89 -86.1,0 -155.91,-69.79 -155.91,-155.89 0,-86.1 69.81,-155.9 155.91,-155.9z"/>
  <path class="fil1" d="M153.07 213.69c0.87,0.19 3.57,-0.02 4.76,-0.02l26.03 0.03c0.56,-0.2 0.32,-1.73 0.32,-2.39 0,-1.51 0.13,-6.94 -0.08,-7.68 -0.88,-0.25 -18.36,-0.09 -20.85,-0.09 -1.34,0 -9.91,-0.31 -10.29,0.16l-0.07 9.59c0.07,0.32 0.09,0.25 0.18,0.4zm-69.09 -176c0.36,-0.19 20.64,-0.28 22.34,-0.09 0.2,0.5 0.86,10.87 0.71,11.32 -0.18,0.5 -1.58,0.29 -2.69,0.29l-19.53 0c-0.99,0.02 -1.24,0.16 -1.47,-0.19 -0.12,-0.21 0.47,-10.85 0.64,-11.33zm150.13 166.57c0,-0.93 -0.41,-0.72 -1.34,-0.71 -4.39,0.05 -28.98,-0.19 -29.94,0.08 -0.13,0.29 -0.13,-0.37 -0.13,0.36 0,1.96 -0.16,8.11 0.09,9.6 0.73,0.3 24.97,0.03 30.21,0.12 0.64,0.01 1.12,0.16 1.12,-0.62l0 -8.83zm-99.83 9.42c0.08,-3.13 0.23,-6.82 -0.03,-10.03 -0.62,-0.23 -30.81,-0.19 -31.07,-0.02 -0.3,0.23 -0.24,9.78 -0.03,9.99 0.52,0.26 27.89,0.05 31.13,0.05zm0 -35.42c-7.07,0 -14.41,-0.13 -21.38,-0.01l-8.16 0.01c-2.21,-0.01 -1.73,-0.85 -1.73,6.03 0,4.43 -0.4,4.11 1.19,4.11l30.05 -0.11c0.19,-3 0.13,-6.99 0.03,-10.03zm49.82 0.12c-0.26,-0.13 0.4,-0.12 -0.34,-0.12l-30.85 0.04 -0.04 9.66c0,0.61 1.64,0.43 2.24,0.43 5.28,0 12.92,0.16 17.91,-0.08 1.51,-0.07 2.79,0.13 4.07,0.08l5.31 -0.08c0.26,0 1.44,0.17 1.53,-0.05 0.02,-0.08 0.15,0.17 0.25,-0.57 0.16,-1.34 0.03,-8.96 -0.08,-9.31zm50.01 0.62c0,-0.97 -0.38,-0.75 -1.34,-0.75 -4.65,0.07 -28.73,-0.19 -29.99,0.09 -0.16,1.66 -0.09,7.3 -0.09,9.35 0,0.87 0.39,0.7 1.28,0.7l27.97 0c1.44,0.05 2.17,0.08 2.17,-0.7l0 -8.69zm-108.66 -24.37c0.18,-2.24 0.02,-13.94 0.02,-17.17 0,-2.31 -0.21,-16.21 0.09,-17.18 0.53,-0.05 13.7,7.6 15.15,8.49 0.62,0.37 1.2,0.68 1.83,1.02 0.61,0.33 1.24,0.75 1.89,1.11 3.84,2.09 7.4,4.34 11.42,6.52l26.49 15.17c0.81,0.43 3.21,2.03 3.81,2.06 0.29,-1.08 0.05,-28.97 0.09,-33.63 0.01,-1.23 0.17,-0.83 1.72,0.02l6.47 3.73c1.44,0.79 2.86,1.55 4.32,2.45 1.47,0.89 2.86,1.62 4.26,2.43l36.59 20.95c0.75,0.43 1.42,0.87 2.13,1.26l4.32 2.47c1.3,0.67 0.98,0.68 0.98,2.41l0 57.42c0,3.14 0.26,26.09 -0.09,27.03l-182.05 0.17c-0.28,-1.28 -0.08,-28.12 -0.08,-30.18l0 -90.93c0.68,0.08 3.39,1.72 4.18,2.2l7.96 4.54c0.32,0.19 0.64,0.38 0.95,0.55 0.08,0.04 0.52,0.29 0.52,0.29 0.33,0.1 0.25,0.12 0.35,-0.19l0.57 -9.01c0.31,-4.12 0.34,-7.72 0.64,-11.84 0.66,-9.76 0.95,-20.07 1.7,-29.77l1.26 -22.25c0.05,-0.57 -0.07,-1.06 0.53,-1.06l23.19 0c0.94,0 0.75,0.24 0.92,2.69l0.61 10.7c0.19,2.38 0.23,4.71 0.38,7.06l0.81 14.13c0.13,2.26 0.32,4.79 0.37,7.05l1.02 17.8c0.05,1.18 0.21,2.37 0.24,3.51 0.01,3.24 0.5,7.48 0.57,10.61 0.02,1.11 0.11,2.44 0.23,3.52 0.43,4.62 0.43,11.63 0.9,15.95 0.15,1.35 0.57,0.94 3.18,2.54 1.29,0.81 9.18,5.36 9.59,5.33z"/>
 </g>
</svg>
