<?xml version="1.0" encoding="UTF-8"?>
<!DOCTYPE svg PUBLIC "-//W3C//DTD SVG 1.1//EN" "http://www.w3.org/Graphics/SVG/1.1/DTD/svg11.dtd">
<!-- Creator: CorelDRAW 2020 (64-Bit) -->
<svg xmlns="http://www.w3.org/2000/svg" xml:space="preserve" width="4.6016mm" height="4.4127mm" version="1.1" style="shape-rendering:geometricPrecision; text-rendering:geometricPrecision; image-rendering:optimizeQuality; fill-rule:evenodd; clip-rule:evenodd"
viewBox="0 0 60.17 57.7"
 xmlns:xlink="http://www.w3.org/1999/xlink"
 xmlns:xodm="http://www.corel.com/coreldraw/odm/2003">
 <defs>
  <style type="text/css">
   <![CDATA[
    .fil0 {fill:#EF7F1A;fill-rule:nonzero}
   ]]>
  </style>
 </defs>
 <g id="Layer_x0020_1">
  <metadata id="CorelCorpID_0Corel-Layer"/>
  <path class="fil0" d="M31.93 56.69c4.01,-3.19 7.31,-7.47 9.55,-12.47 -2.97,-1.19 -6.19,-1.94 -9.55,-2.13l0 14.61z"/>
  <path class="fil0" d="M44.83 45.8c-2.07,4.57 -4.96,8.62 -8.47,11.9 5.57,-1.16 10.55,-3.8 14.51,-7.51 -1.81,-1.69 -3.85,-3.17 -6.04,-4.39z"/>
  <path class="fil0" d="M60.17 30.67l-11.77 0c-0.18,4.12 -0.94,8.05 -2.21,11.72 2.64,1.4 5.05,3.14 7.21,5.15 3.91,-4.65 6.37,-10.48 6.77,-16.86z"/>
  <path class="fil0" d="M31.93 27.04l12.76 0c-0.16,-3.56 -0.81,-6.98 -1.88,-10.17 -3.39,1.34 -7.05,2.17 -10.88,2.38l0 7.79z"/>
  <path class="fil0" d="M31.93 1.01l0 14.61c3.37,-0.2 6.58,-0.94 9.55,-2.13 -2.24,-5.01 -5.54,-9.28 -9.55,-12.47z"/>
  <path class="fil0" d="M53.4 10.17c-2.15,2.01 -4.57,3.74 -7.22,5.14 1.27,3.67 2.04,7.61 2.22,11.72l11.76 0c-0.39,-6.39 -2.86,-12.22 -6.76,-16.87z"/>
  <path class="fil0" d="M31.93 38.45c3.83,0.2 7.48,1.03 10.88,2.38 1.06,-3.19 1.71,-6.59 1.88,-10.16l-12.76 0 0 7.78z"/>
  <path class="fil0" d="M50.88 7.51c-3.96,-3.7 -8.95,-6.36 -14.52,-7.51 3.51,3.28 6.39,7.32 8.47,11.9 2.21,-1.21 4.24,-2.69 6.05,-4.39z"/>
  <path class="fil0" d="M28.23 30.67l-12.76 0c0.16,3.56 0.82,6.98 1.88,10.16 3.39,-1.34 7.05,-2.17 10.88,-2.38l0 -7.78z"/>
  <path class="fil0" d="M28.23 19.25c-3.83,-0.2 -7.49,-1.03 -10.88,-2.38 -1.07,3.19 -1.72,6.6 -1.88,10.17l12.76 0 0 -7.79z"/>
  <path class="fil0" d="M-0 27.04l11.76 0c0.18,-4.11 0.94,-8.05 2.21,-11.72 -2.64,-1.41 -5.06,-3.14 -7.21,-5.15 -3.9,4.65 -6.37,10.48 -6.76,16.87z"/>
  <path class="fil0" d="M28.23 56.69l0 -14.61c-3.37,0.2 -6.58,0.95 -9.56,2.14 2.25,5.01 5.54,9.28 9.56,12.47z"/>
  <path class="fil0" d="M28.23 1.01c-4.01,3.2 -7.31,7.47 -9.56,12.47 2.97,1.19 6.19,1.94 9.56,2.14l0 -14.61z"/>
  <path class="fil0" d="M15.34 45.8c-2.2,1.21 -4.24,2.69 -6.05,4.39 3.96,3.7 8.94,6.35 14.51,7.51 -3.5,-3.28 -6.39,-7.32 -8.46,-11.9z"/>
  <path class="fil0" d="M23.8 0c-5.57,1.15 -10.55,3.81 -14.52,7.51 1.82,1.7 3.85,3.18 6.06,4.39 2.07,-4.58 4.96,-8.62 8.46,-11.9z"/>
  <path class="fil0" d="M13.98 42.38c-1.27,-3.67 -2.04,-7.6 -2.22,-11.72l-11.76 0c0.39,6.39 2.86,12.22 6.77,16.86 2.16,-2.01 4.57,-3.74 7.21,-5.14z"/>
 </g>
</svg>
