<?xml version="1.0" encoding="UTF-8"?>
<!DOCTYPE svg PUBLIC "-//W3C//DTD SVG 1.1//EN" "http://www.w3.org/Graphics/SVG/1.1/DTD/svg11.dtd">
<!-- Creator: CorelDRAW 2020 (64-Bit) -->
<svg xmlns="http://www.w3.org/2000/svg" xml:space="preserve" width="11.7364mm" height="11.7365mm" version="1.1" style="shape-rendering:geometricPrecision; text-rendering:geometricPrecision; image-rendering:optimizeQuality; fill-rule:evenodd; clip-rule:evenodd"
viewBox="0 0 242.6 242.61"
 xmlns:xlink="http://www.w3.org/1999/xlink"
 xmlns:xodm="http://www.corel.com/coreldraw/odm/2003">
 <defs>
  <style type="text/css">
   <![CDATA[
    .fil0 {fill:#FEFEFE}
    .fil1 {fill:#FEFEFE;fill-rule:nonzero}
   ]]>
  </style>
 </defs>
 <g id="Layer_x0020_1">
  <metadata id="CorelCorpID_0Corel-Layer"/>
  <path class="fil0" d="M136.28 138.39c-1,0 -2.51,-0.33 -1.42,-1.69 0.6,-0.75 1.98,-0.53 3.12,-0.51 4.11,0.05 4.98,-0.57 5.55,1.79l-7.25 0.41zm33.62 -6.03c-2.87,1.18 0.17,6.35 3.34,4.29 2.45,-1.58 1.16,-6.16 -3.34,-4.29zm-53.34 72.33c-1.1,0.48 -2.83,2.45 -3.38,3.69 -0.97,2.19 0.9,3.62 2.9,3.02 4.46,-1.32 4.15,-8.31 0.48,-6.71zm-16.1 -12.15c-5.41,3.01 -4.33,9.69 -0.42,7.51 0.59,-0.33 2.97,-3.37 3.31,-4.43 0.6,-1.92 -1.25,-3.99 -2.88,-3.08zm11.23 7.51c-1.89,1.48 -2.92,2.45 -4.28,4.79 -1.9,3.28 1.96,7.84 6.85,-1.38 1.79,-3.38 -0.71,-4.86 -2.57,-3.41zm-4.95 -4.48c-2.1,0.99 -6.56,5.96 -5.4,8.12 2.76,5.18 9.33,-5.11 8.65,-7.16 -0.42,-1.26 -1.95,-1.58 -3.25,-0.96zm68.52 -125.36c0.24,2.42 1.29,1.43 3.41,3.95l-0.68 5.09c1.65,-0.33 3.08,-1.84 4.47,-1.78 1.11,0.05 2.68,1.46 4.47,1.8 -0.02,-1.78 -0.69,-4.45 0.03,-5.67 0.32,-0.55 1.11,-1.11 1.59,-1.54 0.82,-0.71 1.1,-0.62 1.19,-2.04 -8.46,-0.07 -4.26,-3.24 -7.25,-4.61 -1.43,0.95 -1.04,2.59 -2.18,3.73 -1.01,1 -3.57,0.84 -5.04,1.05zm-33.94 -22.58c0.28,1.82 1.25,1.79 3.42,3.93l-0.79 5.23c2.13,-0.24 3.02,-1.9 4.66,-2.11 1.58,-0.2 2.58,1.49 4.63,1.61l-0.54 -5.18c1.09,-0.63 2.87,-2.11 3.13,-3.35 -8.2,-1.44 -3.61,-0.72 -6.98,-5.32 -0.76,0.35 -0.24,-0.05 -0.77,0.63 -1.63,2.09 -0.4,3.99 -3.63,4.28 -1.06,0.1 -2.19,0.14 -3.13,0.27zm54.15 60.24c0.28,1.76 2.32,2.69 3.4,4.13l-0.64 5.23c5.58,-1.52 1.35,-3.71 9.01,-0.02 0.46,-2.24 -0.37,-3.44 -0.4,-5.67 0.76,-0.45 1.07,-0.73 1.78,-1.35 0.96,-0.84 1.23,-0.75 1.4,-2.13 -1.33,-0.28 -3.93,-0.16 -4.82,-0.94 -1.14,-0.99 -1.47,-3.01 -2.31,-4.09 -0.07,0.06 -0.17,0.07 -0.19,0.19l-2.08 3.59c-0.91,1.15 -3.3,0.87 -5.13,1.04zm-141.86 -37.52c0.62,1.38 1.83,2.23 2.62,3.42 0.83,1.24 0.03,3.66 -0.13,5.2 2.1,-0.13 3.44,-1.78 4.74,-1.73 1.83,0.07 5.09,4.3 4.21,-0.92 -0.19,-1.12 -0.51,-1.72 -0.18,-2.54 0.48,-1.17 2.51,-1.74 3.2,-3.43 -1.11,-0.69 -3.66,-0.28 -4.72,-1.16 -0.52,-0.43 -1.73,-3.43 -2,-4.19 -3.06,1.63 -0.45,3.95 -4.95,4.65 -0.42,0.06 -1.12,0.13 -1.49,0.21l-1.3 0.5zm105.82 -13.06c0.56,1.15 2.21,2.59 3.13,3.28l-0.68 5.65c1.6,-0.45 3.57,-1.85 4.48,-2.03 1.05,-0.21 3.28,1.27 4.74,1.81 0.02,-1.91 -0.8,-4.5 0.01,-5.7 0.93,-1.37 2.44,-1.32 2.8,-3.29 -1.33,-0.39 -4,-0.16 -5.01,-1.13 -0.6,-0.58 -1.64,-3.05 -2.37,-3.92 -1.4,0.95 -1.38,2.9 -2.39,3.91 -1.14,1.14 -3.43,0.5 -4.7,1.42zm-128.36 72.71c0.36,1.13 2.3,2.67 3.09,3.88l-0.45 5.12c1.64,-0.36 3.73,-2.17 4.65,-2.05 0.81,0.11 2.81,1.95 4.57,2.22 -0.07,-1.4 -0.8,-4.72 -0.33,-5.63 0.3,-0.6 1.16,-1.29 1.67,-1.74 1.05,-0.94 1.31,-0.81 1.15,-2.02 -1.43,-0.21 -3.87,-0.02 -4.81,-0.96 -1,-1.01 -1.13,-2.95 -2.49,-3.82 -0.83,1 -1.55,3.23 -2.17,3.81 -1.07,1.01 -3.36,0.55 -4.88,1.19zm155.96 -41.54c0.52,0.53 2.76,2.51 3.17,3.18 0.89,1.42 -0.45,3.99 -0.19,5.79 0.98,-0.45 3.38,-2 4.21,-2.17 1.75,-0.37 2.68,1.62 4.95,1.68 -0.15,-1.68 -0.76,-4.12 -0.06,-5.44 0.71,-1.36 2.35,-1.62 2.64,-3.46 -1.47,-0.63 -3.72,-0.1 -4.74,-1.03 -0.86,-0.79 -1.66,-3.06 -2.25,-3.87 -1.58,0.56 -1.49,2.85 -2.68,3.91 -1.02,0.9 -3.85,0.76 -5.04,1.42zm-117.28 -31.17c0.43,1.45 1.99,2.61 3.12,3.35l-0.48 5.59c1.76,-0.3 3,-1.83 4.46,-1.91 1.22,-0.07 3.01,1.42 4.58,1.91 0.06,-4.88 -1.68,-4.76 1.55,-7.13 1.04,-0.76 1.23,-0.8 1.51,-1.81 -0.64,-0.39 0.6,-0.07 -1,-0.43 -0.29,-0.06 -0.89,-0.09 -1.21,-0.11 -0.97,-0.06 -1.74,-0.1 -2.71,-0.23 -1.6,-2.34 -1.22,-3.7 -2.81,-4.45 -0.41,0.66 -1.68,3.53 -2.13,3.98 -1.1,1.1 -3.42,0.15 -4.87,1.23zm-36.93 50.19c0.63,1.52 2.32,2.34 3.27,3.81l-0.68 5.03c1.83,-0.23 3.2,-1.65 4.48,-1.88 1.88,-0.33 2.69,1.55 4.98,1.48 -0.21,-1.87 -0.57,-3.41 -0.38,-5.52 0.91,-0.69 2.46,-1.71 2.92,-2.99 -0.09,-0.05 -0.22,-0.21 -0.28,-0.12 -0.05,0.09 -0.2,-0.09 -0.28,-0.12l-1.73 -0.39c-2.47,-0.36 -2.35,0.07 -3.52,-2.3 -0.43,-0.89 -0.7,-1.53 -1.01,-2.34 -2.05,0.6 -1.36,2.81 -2.78,3.93 -1.15,0.92 -3.9,0.64 -5,1.42zm59.42 -60.64c-1.39,0.29 -3.83,0.23 -4.97,0.92 0.45,1.74 2.8,2.82 3.18,3.88 0.61,1.68 -1.73,5.61 0.47,4.79 0.06,-0.02 1.02,-0.52 1.14,-0.58 4.89,-2.68 5.62,1.79 6.79,0.71 0.32,-0.3 0.1,-1.99 0.04,-2.42 -0.19,-1.3 -0.54,-1.78 0.06,-2.79 0.86,-1.47 2.83,-1.85 2.92,-3.85 -4.66,-0.62 -4.52,0.5 -5.87,-2.73 -0.33,-0.79 -0.66,-1.55 -1.17,-2.23 -1.16,0.39 -2.2,3.06 -2.59,4.3zm104.6 83.63c0.23,1.68 1.93,2.3 2.8,3.58 1,1.47 -0.45,3.25 -0.06,5.69 4.38,-1.47 3.21,-3.14 6.58,-1.21 1.01,0.58 1.42,0.92 2.67,1.22 -0.77,-7.28 -0.98,-4.96 2.7,-9.06 -3.08,-2.39 -3.6,2.77 -7.1,-5.44 -1.85,0.93 -1.35,2.93 -2.5,4.12 -0.9,0.92 -3.52,0.78 -5.09,1.09zm-155.25 -42.83c0.41,1.47 2.11,2.86 3.25,3.88l-0.53 4.92c1.25,-0.38 3.2,-1.87 4.64,-1.78 1.09,0.07 2.92,1.55 4.54,1.91 0.02,-1.73 -0.77,-4.39 0.1,-5.54 0.69,-0.92 2.65,-2.3 3.02,-3.23 -2.88,-2.05 -4.09,1.26 -6.23,-3.07 -0.72,-1.45 -0.52,-1.46 -1.42,-2.17 -1.1,0.93 -1.64,3.21 -2.49,3.88 -1.16,0.91 -3.48,0.2 -4.89,1.19zm96.3 12.1l-2.77 -0.2c-1.89,6.94 -3.97,16.85 -13.45,17.14 -8.63,0.26 -13.18,-11.22 -13.73,-17.17l-2.53 0.08c-0.38,3.43 3.29,11.28 4.79,13.38 1.93,2.7 6.31,6.81 11.48,6.49 5.6,-0.35 8.81,-3.43 11.22,-6.74 1.5,-2.05 4.97,-9.59 4.99,-12.98zm-59.36 -5.14c-0.25,-0.08 -0.96,0.45 -1.31,-2.41 -0.15,-1.18 -0.19,-2.51 -0.44,-3.42 -1.3,-0.04 -2.68,1.19 -3.5,1.89 -2.38,2.02 -2.96,5.61 -4.06,7.78 -0.93,1.83 -1.86,1.9 -2.39,3.83 6.39,0.77 23.6,0.97 29.87,0 -0.31,-1.85 -1.23,-2.37 -2.01,-3.89 -0.59,-1.17 -1.01,-3.02 -1.61,-4.32 -1.41,-3.07 -4.98,-5.85 -5.6,-5.26 -0.89,0.86 -0.38,3.15 -0.8,4.47 -0.52,1.64 -0.07,0.77 -1.01,1.15 -2.11,-3.41 2.45,-8.43 -3.74,-8.2 -5.92,0.22 -1.3,5.13 -3.39,8.39zm27.28 -52.38c0.17,1.35 4.86,4.54 6.94,7.07 1.87,2.26 -1.72,8.21 -0.73,11.69 1.92,-0.03 7.59,-4.74 9.06,-4.91 1.46,-0.16 7.31,4.63 9.27,4.61 0.61,-3.56 -2.32,-9.43 -0.63,-11.59 1.22,-1.55 6.57,-5 6.83,-6.96 -1.85,-1.34 -9.15,-0.36 -10.73,-2.2 -1.05,-1.23 -3.33,-6.87 -3.96,-7.88l-0.87 -0.97c-0.93,1.02 -1.66,3.21 -2.21,4.53 -0.39,0.93 -1.6,3.99 -2.09,4.52 -1.27,1.41 -8.7,1.16 -10.88,2.1zm44.39 148.13c-0.08,-3.02 -5.17,-16.08 -7.24,-18.56 -8.64,-0.44 -3.85,-0.01 -12.19,-2.19 -5.75,-1.5 -6.83,-0.86 -11.2,1.62 -13.44,7.64 -11.71,14.58 -4.2,10.46 1.95,-1.07 7.01,-5.38 9.01,-5.34 2.38,0.06 17.27,12.57 21.26,14.89 1.87,1.09 3.14,0.68 4.55,-0.88zm8.35 -94.45c9.73,-2.41 14.16,12.55 4.23,15.43 -4.87,1.41 -8.76,-1.75 -9.71,-5.46 -1.29,-5.03 2.06,-9.12 5.49,-9.97zm-7.67 -5.38c-1.55,0.75 -2.16,1.63 -2.97,3.13 1.07,4.31 2.46,0.22 -0.11,6.32 -2.69,0.35 -3.96,-0.87 -3.3,5.66l3.48 0.8c2.29,5.03 -0.36,4.38 -0.52,5.93 -0.15,1.51 2.94,3.65 4.1,4.14 0.72,-0.58 1.04,-1.02 1.59,-1.68 2.32,-0.05 2.88,1.1 4.44,1.85l0.26 2.9c6.82,1.16 5.7,-0.95 5.95,-3.02 1.11,-0.62 2.44,-1.47 3.74,-1.86 1.54,0.66 1.21,1.19 3.05,1.32 1.03,-0.6 2.54,-1.92 3.12,-3.3 -0.39,-1.42 -1.22,-1.83 -1.34,-2.87 -0.05,-0.4 0.14,-1.3 0.27,-1.67 0.6,-1.84 1.11,-1.69 2.15,-1.97 0.34,-0.1 0.47,-0.09 0.83,-0.22 0.08,-0.03 0.19,-0.07 0.27,-0.11 1.49,-0.58 0.55,-5.16 0.55,-5.16 -1.78,-1.2 -2.32,0.35 -3.51,-1.74 -2.98,-5.25 2.33,-3.78 -0.1,-6.91 -0.79,-1.03 -1.85,-1.86 -3.26,-2.35 -1.27,0.73 -1.18,1.62 -2.4,1.75 -0.6,0.06 -2.81,-0.75 -3.37,-0.92l-0.75 -3.53c-8.77,-0.99 -3.5,2.27 -6.37,3.86 -3.72,2.07 -3.17,0.17 -5.8,-0.34zm28.49 44.84l-2.3 0.91c-0.18,2.62 0.66,0.77 0.3,3.31 -2,1.11 -0.97,0.08 -3.38,0.24 -0.97,1.13 -0.3,1.69 -1.74,1.97 -1.84,0.37 -1.59,-0.63 -2.01,-1.83 -1.56,-0.04 -3.6,1.24 -4.2,-0.57 -0.47,-1.42 0.65,-0.93 0.07,-2.55 -0.39,-1.1 -0.82,-0.43 -1.9,-1.5 0.24,-2.36 0.41,-1.4 1.99,-2.35 -0.08,-1.92 -0.36,-1.21 -0.57,-2.62 2.13,-2.93 2.06,-0.48 3.53,-0.89 1.87,-0.52 -0.99,-2.42 3.33,-2.13l0.77 1.96c1.71,0.11 4.2,-2.1 3.95,1.25 -0.33,4.3 1.81,0.07 2.17,4.8zm-31.6 -13.82c0.99,2.11 4.24,3.19 5.93,9.78 0.43,1.69 2.26,13.06 2.45,13.28 0.93,1.12 9.63,0.45 11.05,0.45 2.88,0 13.62,-0.06 16.16,-1.1 1.43,-0.58 0.96,-2.71 1,-4.75 0.08,-3.21 0.63,-8.61 -0.7,-11.1 -0.79,-1.49 -4.31,-4.56 -6.66,-5.14 -2.22,-0.54 -9.5,-0.44 -10.98,0.55 -3.11,2.09 -5.77,1.61 -8.99,-0.22 -2.15,-1.22 -5.9,-3.69 -9.25,-1.74zm-31.19 -34.51c-0.43,-0.16 -1.05,0.55 -1.28,-2.9 -0.2,-3 0.56,-6.64 -4.99,-1.92 -3.17,2.7 -3.51,6.84 -4.78,9.86 -1.03,2.44 -2.55,2.98 -3.03,4.76 0.38,0.26 0.24,0.19 0.83,0.38l3.39 0.46c5.85,0.13 30.79,0.15 33.07,-0.29 0.12,-0.31 0.19,-0.22 0.12,-0.83 -0.12,-0.97 -0.85,-1.54 -1.43,-2.36 -0.67,-0.96 -1.24,-1.87 -1.61,-3.25 -0.47,-1.78 -0.11,-2.3 -0.89,-4.03 -1.08,-2.39 -5.49,-7.15 -7.54,-7 -1.77,0.14 -0.65,2.34 -1.51,5.78 -0.45,1.8 -0,1.18 -1.26,1.67 -0.92,-4.54 1.73,-11.72 -4.33,-11.77 -2.59,-0.02 -4.25,1.09 -4.44,3.58 -0.15,1.93 0.7,6.27 -0.32,7.85zm-40.63 32.9c1.82,-0.81 3.35,0.8 5.98,0.59 2.5,-0.19 3.01,-1.29 6.11,-0.67 1.61,2.02 0.67,1.46 1.53,3.29 0.39,0.83 3.38,3.72 -1.18,3.5 -3.21,-0.15 -2.29,-1.16 -4.66,5.24 -0.66,1.8 -1.12,3.84 -2.03,5.42 -0.78,-1.73 -1.54,-3.72 -2.33,-5.69 -0.79,-2.01 -1.81,-3.75 -2.43,-5.5 -2.09,0.08 -7.12,2.72 -2.23,-3.59 0.98,-1.26 0.38,-1.42 1.24,-2.59zm-7.12 -15.56c-0.29,2.51 0.01,5.97 -0.44,8.33 -0.48,2.48 -2.51,4.5 -2.63,5.93 3.14,2.16 6.33,0.6 7.95,1.56 1.24,0.73 0.34,-0.12 0.85,0.99 -2.64,2.15 -3.79,0.1 -9.8,3.34 -4.27,2.3 -5.47,3.77 -5.47,9.36 0,3.04 -0.59,7.99 0.35,10.45 3.89,1.18 21.04,0.85 26.7,0.85 2.69,0 2.12,0.24 2.81,-5.22 0.26,-2.03 0.74,-4.98 1.17,-6.89 1.91,-8.56 3.12,-6.86 6.06,-10.05 -0.71,-0.69 -0.05,-0.33 -1.41,-0.58l-4.93 -1.26c2.07,-2.28 4.57,-0.7 7.48,-1.81 0.06,-1.5 -1.76,-4.28 -2.24,-6.37 -0.6,-2.65 -0.26,-6.06 -0.95,-8.23 -1,-0.47 -1.16,-0.58 -2.23,-0.28 -0.05,0.09 -0.09,0.13 -0.1,0.28l-0.22 0.9c-0.55,3.24 -0.59,4.82 -2.65,8.17 -3.85,6.25 -10.97,6.77 -14.9,0.19 -2.21,-3.69 -1.63,-6.32 -2.84,-9.71l-2.54 0.06zm31.73 67.65c-1.71,3.06 -4.25,11.06 -5.77,15.12 -1.04,2.79 -1.06,3.57 0.36,5.66 2.83,-0.01 4.31,-4.72 8.42,-2 2.18,1.43 0.57,2.08 3.89,1.73 4.16,-0.44 3.25,3.48 7.04,4.93 2.09,0.8 2.12,1.33 3.01,3.23 1.14,2.41 1.64,1.54 3.1,3.12 1.35,1.45 0.56,3.31 0.78,5.63 1.74,1.31 4.46,2.69 6.65,0.76 -0.51,-3.96 -5.91,-3.42 -5.49,-6.6 1.75,-0.16 2.64,1.12 5.86,3.4 4.97,3.51 8.67,-0.15 5.18,-2.91l-4.89 -3.72c-1.36,-0.95 -1.99,-0.72 -1.78,-2.41 1.41,0.01 5.36,3.27 6.83,4.21 0.84,0.53 2.97,2.01 3.9,2.08 0.17,0.01 6.45,-1.1 1.02,-5.43l-6.21 -4.83c-0.8,-0.67 -2.55,-1.49 -2.41,-2.61 1.12,-0.35 3.45,1.43 4.52,2.19 1.79,1.25 7.03,5.75 8.83,5.7 1.62,-0.04 3.82,-1.84 2.76,-3.95 -0.69,-1.38 -6.26,-5.36 -8.02,-6.53l-4.16 -3.09c-2.46,-1.65 -6.15,-4.89 -8.54,-6.33 -3.25,-1.95 -9.01,6.53 -14.58,5.96 -3.66,-0.38 -5.01,-5.25 -1.41,-9.05 2.43,-2.57 3.25,-3.16 5.89,-5.18 0.86,-0.66 1.64,-0.96 1.67,-1.58 -0.33,-0.18 -0.17,-0.18 -0.81,-0.24 -0.42,-0.04 -0.71,-0.01 -1.14,0.07l-5.76 2.17c-5.1,2.01 -4.4,0.53 -8.75,0.51zm45.07 -2.58l8.99 23.11c4.36,-0.45 17.36,-7.77 21.24,-10.84 8.5,-6.72 15.04,-12.55 20.94,-22.36 5.41,-9.02 9.05,-7.21 -19.42,-7.21 -1.95,0 -3.92,-0.2 -5.07,0.84 -5.97,5.44 -10.22,9.09 -17.91,12.8 -2.32,1.12 -6.43,3.13 -8.77,3.66zm-55.75 23.54c0.96,-4.32 7.7,-20.56 7.66,-23.09 -1.22,-0.96 -4.59,-2.1 -6.11,-2.82 -2.23,-1.05 -3.99,-2.14 -6.05,-3.25 -4.16,-2.25 -10.23,-6.78 -13.29,-9.83 -0.94,-0.94 -1.17,-1.68 -3.04,-1.8l-27.43 0.17c0.02,1.17 3.07,5.71 3.91,6.99 7.6,11.57 16.7,19.81 28.5,26.86 3.55,2.12 11.14,6.23 15.85,6.77zm35.44 -50.81c-0.5,-1.8 -0.63,-6.93 -0.96,-9.32 -0.17,-1.15 -0.92,-3.5 -0.89,-4.28 0.05,-1.17 1.36,-1.83 1.93,-3.5 -0.12,-2.75 -6.06,-3.82 -6.99,-0.54 -0.46,1.62 0.41,1.96 0.87,3.03 0.51,1.19 -1,11.45 -1.16,13.84 -0.86,-0.53 -0.2,0.14 -0.84,-0.81 -0.07,-0.1 -0.49,-1.13 -0.52,-1.25l-5.22 -18.21c-0.24,-0.55 -0.14,-0.39 -0.42,-0.74 -0.53,-0.37 -10.76,1.15 -15.4,7 -2.6,3.28 -3.97,15.26 -2.97,20.35 12.99,4.13 32.07,5.33 45.91,3.04 4.12,-0.69 10.4,-1.76 13.5,-3.53 -0.32,-12.37 0.2,-21.16 -10.49,-24.97 -1.47,-0.53 -8.28,-2.55 -9.5,-2.61 -0.62,4.22 -1.76,7.93 -3.02,11.73 -0.67,2.01 -2.49,9.91 -3.82,10.76z"/>
  <path class="fil1" d="M121.3 -0c33.5,0 63.83,13.58 85.78,35.53 21.94,21.95 35.53,52.28 35.53,85.77 0,33.49 -13.58,63.82 -35.53,85.77 -21.95,21.95 -52.28,35.53 -85.78,35.53 -33.49,0 -63.82,-13.58 -85.77,-35.53 -21.95,-21.95 -35.53,-52.28 -35.53,-85.77 0,-33.5 13.57,-63.82 35.53,-85.77 21.95,-21.95 52.28,-35.53 85.77,-35.53zm80.84 40.47c-20.68,-20.69 -49.26,-33.48 -80.84,-33.48 -31.56,0 -60.15,12.79 -80.83,33.48 -20.69,20.69 -33.49,49.27 -33.49,80.84 0,31.57 12.8,60.15 33.49,80.84 20.68,20.68 49.27,33.48 80.83,33.48 31.57,0 60.16,-12.8 80.84,-33.48 20.69,-20.69 33.49,-49.27 33.49,-80.84 0,-31.57 -12.8,-60.15 -33.49,-80.84z"/>
 </g>
</svg>
