<?xml version="1.0" encoding="UTF-8"?>
<!DOCTYPE svg PUBLIC "-//W3C//DTD SVG 1.1//EN" "http://www.w3.org/Graphics/SVG/1.1/DTD/svg11.dtd">
<!-- Creator: CorelDRAW 2020 (64-Bit) -->
<svg xmlns="http://www.w3.org/2000/svg" xml:space="preserve" width="11.7364mm" height="11.7366mm" version="1.1" style="shape-rendering:geometricPrecision; text-rendering:geometricPrecision; image-rendering:optimizeQuality; fill-rule:evenodd; clip-rule:evenodd"
viewBox="0 0 242.6 242.61"
 xmlns:xlink="http://www.w3.org/1999/xlink"
 xmlns:xodm="http://www.corel.com/coreldraw/odm/2003">
 <defs>
  <style type="text/css">
   <![CDATA[
    .fil0 {fill:#FEFEFE}
    .fil1 {fill:#FEFEFE;fill-rule:nonzero}
   ]]>
  </style>
 </defs>
 <g id="Layer_x0020_1">
  <metadata id="CorelCorpID_0Corel-Layer"/>
  <path class="fil0" d="M70.76 175.87c1.64,-0.25 9.39,3.3 10.75,4.2 0.01,1.08 -0.32,1.55 -0.63,2.32 -1.53,-0 -8.97,-3.08 -10.67,-3.77 -0,-1.1 0.2,-2 0.55,-2.75zm29.62 -106.19c2.16,-0.74 2.12,-1.8 1.09,-3.8 -0.54,-1.04 -2.02,-3.25 -2.61,-3.85 -5.49,0.14 -0.19,7.09 1.53,7.65zm53.43 11.69c0.14,6.23 7.69,-0.88 7.81,-1.62 0.07,-0.52 -0.16,-3.25 -3.46,-1.19 -1.25,0.77 -3.46,2.03 -4.35,2.82zm-14.76 -12.82c2.78,2.42 3.32,0.74 4.66,-1.78 1.24,-2.32 2.35,-4.76 -1.49,-4.72 -0.81,1.25 -3.29,4.5 -3.17,6.5zm-52.18 15.23c1.5,-2.27 0.98,-2.46 -1.07,-3.91 -0.97,-0.69 -3.16,-2.15 -4.23,-2.53 -2.66,1.62 -1.71,2.93 0.07,4.07 1.43,0.92 3.11,2.59 5.24,2.37zm75.5 19.91l5.73 -0.24c0.31,-1.44 0.32,-1.7 -0.19,-3.12 -11.34,-1.43 -9.46,3.36 -5.54,3.36zm-80.01 -0.58c0.34,-0.96 0.24,-1.67 -0.12,-2.63 -1.43,-0.63 -6,-0.52 -7.3,-0.29 -1.55,0.28 -1.91,1.85 -0.79,2.84 1.15,1.01 7.06,0.5 8.2,0.08zm36.42 -43.41l0 2.31c0,3.89 3.88,4.01 3.88,0 0,-2.31 0.32,-4.36 -0.66,-5.8 -3.44,-0.56 -3.22,0.17 -3.22,3.49zm-71 115.23c0.44,2.09 1.52,1.57 5.73,2.23 2.1,0.33 5.76,0.8 7.48,0.16l0.06 -3.23c-1.97,-0.77 -11.3,0.26 -13.28,0.85zm-5.06 -38.09c1.22,1.71 12.59,2.22 15.78,2.25 1.89,0.02 2.76,0.12 2.53,-2.87 -0.11,-1.46 -0.05,-1.29 -1.52,-1.33 -2.89,-0.08 -15.77,0.85 -16.8,1.94zm-3.12 26.1c2.37,1.58 15.78,1.8 19.91,1.64 1.73,-0.06 1.54,0.01 1.54,-2.3 0,-2.21 0.33,-1.79 -4.56,-1.6 -7.06,0.27 -8.19,0.61 -14.52,1.26 -1.59,0.17 -1.77,-0.09 -2.36,1zm-8.55 -13.19c0.25,0.48 -0.5,0.84 3.01,1.04 3.71,0.2 7.58,0.02 11.31,0.54l11.46 0.46c1.64,0.06 2.42,0.27 3.82,-0.21 0.07,-0.02 0.19,-0.07 0.26,-0.12 1.1,-4.7 -0.67,-3.63 -4.75,-3.57 -4,0.06 -23.72,1.01 -25.11,1.86zm88.76 -78.92c-2.28,1.22 -1.33,4.64 -1.42,7.68 -0.08,2.8 0.47,15.97 -0.24,17.47 -0.81,1.68 -3.37,2.74 -2.8,6.09 0.36,2.14 2.38,4.11 4.35,4.58 3.92,0.95 2.27,-1.89 6.63,0.98 3.72,2.45 7.31,4.97 10.87,7.28 2.81,1.82 4.95,-0.24 3.71,-2.71 -0.36,-0.71 -6.16,-4.14 -7.92,-5.3 -7.19,-4.75 -5.52,-3.48 -6.71,-7.16 -1,-3.1 -3.06,-2.5 -3.09,-5.69l0.1 -17.84c0,-2.59 0.09,-7.29 -3.49,-5.37zm-24.04 53.85c1.11,1.66 29.18,12.29 32.29,13.53 11.39,4.56 3.99,4.21 19.42,-1.59 -0.93,-1.45 -10.85,-4.56 -12.56,-5.27l-25.93 -10.38c-2.2,-0.87 -4.11,0.43 -6.5,1.2 -1.99,0.64 -5.18,1.55 -6.72,2.5zm-26.85 9.42c0.42,1.28 -0.66,0.5 3.19,2.02l10.75 4.09c4.74,1.91 9.39,3.99 14.28,5.84 2.49,0.94 4.79,1.77 7.12,2.77 8.11,3.5 6.24,2.88 10.84,0.8 1.09,-0.49 2.24,-0.9 3.54,-1.4 1.72,-0.66 6.27,-2.12 7.05,-3.09l-34.79 -14.27c-6.79,-2.54 -3.99,-3.13 -14.56,0.77 -1.86,0.69 -5.6,2.11 -7.41,2.46zm61.25 -8.94c0.45,1.28 9.9,4.5 11.65,5.24 2.98,1.24 10.4,3.65 12.22,5.21l0.23 13.33c4.94,0.61 30.11,-0.54 31.1,0.64 0.75,1.19 0.27,7.3 0.34,9.29 1.73,-0.65 16.68,-13.64 19.57,-16.01l6.24 -5.64c-0.47,-1.04 -5.1,-4.67 -6.08,-5.48 -3.4,-2.79 -17.97,-15.51 -19.72,-16.09 0.24,11.52 1.26,9.2 -6.85,9.3 -6.89,0.08 -45.86,-0.25 -48.7,0.21zm7.09 32.79c-3.5,0.3 -1.99,-0.62 -4.99,1.27 -1.23,0.77 -2.5,1.93 -4.23,2.2l-0.11 -12.92c-0.63,-0.38 -0.17,-0.31 -1.06,-0.26 -0.32,0.02 -13.5,5.59 -13.83,6.24 -0.41,2.9 -0.3,43.07 0.08,44.43 0.74,0.94 8.7,-3.09 9.28,-3.38 3.09,-1.5 27.16,-11.44 27.67,-12.22 0.45,-2.12 0.48,-41.77 0.04,-44.06 -1.88,0 -9.36,3.47 -11.34,4.38 -1.46,0.67 -1.38,0.5 -1.39,2.46l-0.13 11.85zm-77.48 -58c0,9.14 0.76,15.75 4.31,24.08 0.91,2.13 2.03,3.7 2.82,5.3 2.55,-0.15 5.74,-1.88 8.01,-2.65 -0.17,-1.08 -2.9,-5.46 -4.26,-9.55 -2.41,-7.22 -2.21,-9.41 -2.21,-16.52 0,-13.18 6.71,-26.37 15.43,-34.62 7.87,-7.44 20.16,-14.58 35.93,-14.58l3.96 0c15.03,0 27.7,8.86 34.84,15.69 7.06,6.76 15.14,20.48 15.14,35.49 0,8.85 -2.46,15.81 -2.35,17.03 2.76,0.41 5.56,0.14 8.34,0.05 1.87,-3.21 2.34,-12.98 2.34,-17.41 0,-21.11 -12.37,-38.58 -26.1,-48.03 -20.57,-14.17 -48.79,-14.94 -69.45,-0.77 -8.93,6.12 -15.43,12.62 -20.59,23.28 -2.97,6.13 -6.16,14.96 -6.16,23.21zm24.62 75.53c-0.02,1.01 -0.3,1.52 -0.62,2.21 -1.7,-0.09 -5.23,-1.82 -6.88,-2.5 -1.77,-0.74 -6.55,-1.41 -5.98,-3.99 0.54,-2.45 5.2,0.66 6.74,1.25 2.21,0.84 5.23,1.67 6.74,3.03zm-18.33 -36.61l0.01 43.42c2.93,1.52 41.71,17.05 43.04,17.11 0.91,-2.6 0.5,-39.37 0.5,-43.38 0,-1.85 -0.05,-1.75 -1.69,-2.28l-39.88 -15.9c-1.4,-0.6 -1.98,-1.02 -1.98,1.03z"/>
  <path class="fil1" d="M121.3 -0c33.5,0 63.83,13.58 85.78,35.53 21.94,21.95 35.53,52.28 35.53,85.77 0,33.49 -13.58,63.82 -35.53,85.77 -21.95,21.95 -52.28,35.53 -85.78,35.53 -33.49,0 -63.82,-13.58 -85.77,-35.53 -21.95,-21.95 -35.53,-52.28 -35.53,-85.77 0,-33.5 13.57,-63.82 35.53,-85.77 21.95,-21.95 52.28,-35.53 85.77,-35.53zm80.84 40.47c-20.68,-20.69 -49.26,-33.48 -80.84,-33.48 -31.56,0 -60.15,12.8 -80.83,33.48 -20.69,20.68 -33.49,49.27 -33.49,80.84 0,31.57 12.8,60.15 33.49,80.84 20.68,20.68 49.27,33.48 80.83,33.48 31.57,0 60.16,-12.8 80.84,-33.48 20.69,-20.69 33.49,-49.27 33.49,-80.84 0,-31.57 -12.8,-60.15 -33.49,-80.84z"/>
 </g>
</svg>
