<?xml version="1.0" encoding="UTF-8"?>
<!DOCTYPE svg PUBLIC "-//W3C//DTD SVG 1.1//EN" "http://www.w3.org/Graphics/SVG/1.1/DTD/svg11.dtd">
<!-- Creator: CorelDRAW 2020 (64-Bit) -->
<svg xmlns="http://www.w3.org/2000/svg" xml:space="preserve" width="11.7364mm" height="11.7364mm" version="1.1" style="shape-rendering:geometricPrecision; text-rendering:geometricPrecision; image-rendering:optimizeQuality; fill-rule:evenodd; clip-rule:evenodd"
viewBox="0 0 242.6 242.6"
 xmlns:xlink="http://www.w3.org/1999/xlink"
 xmlns:xodm="http://www.corel.com/coreldraw/odm/2003">
 <defs>
  <style type="text/css">
   <![CDATA[
    .fil0 {fill:#FEFEFE}
    .fil1 {fill:#FEFEFE;fill-rule:nonzero}
   ]]>
  </style>
 </defs>
 <g id="Layer_x0020_1">
  <metadata id="CorelCorpID_0Corel-Layer"/>
  <path class="fil0" d="M110.41 80.05c4.72,-1 9.74,-0.65 14.17,0.73 4.78,1.5 6.63,2.76 10.26,5.13 5.06,3.31 10.48,10.68 12.11,19.03 3.39,17.35 -9.04,33.71 -25.07,36.2 -9.21,1.43 -18.78,-0.72 -24.4,-5.81 -6.57,-5.95 -9.93,-9.02 -11.91,-19.29 -3.14,-16.28 7.6,-32.32 24.85,-35.98zm42.49 65.95c-6.74,2.86 -2.29,12.5 4.31,9.77 6.82,-2.82 2.05,-12.46 -4.31,-9.77zm21 -0.33c-7.09,2.94 -3.33,12.51 3.77,10.16 6.65,-2.2 2.75,-12.86 -3.77,-10.16zm-129.27 0c-7.16,3.25 -2.47,12.88 4.23,10.18 6.8,-2.74 2.23,-13.11 -4.23,-10.18zm149.22 0.02c-7.11,2.86 -2.96,12.89 4.24,10.23 6.47,-2.39 2.45,-12.93 -4.24,-10.23zm-136.21 14.58c-6.05,-0.24 -14.32,1.22 -18.1,-2.34 -4.16,-3.92 -4.81,-10.57 -0.04,-14.36 5.69,-4.51 35.95,-0.61 39.19,-2.33 0.97,-1.13 1.46,-2.69 1.03,-3.98 -3.26,-1.17 -21.29,-0.52 -26.37,-0.53 -10.56,-0.01 -15.75,0.14 -20.2,7.13 -4.65,7.31 -0.71,14.96 4.16,18.36 3.39,2.37 6.15,2.61 11.05,2.51 3.39,-0.07 8.02,1.44 9.28,-4.48zm54.49 -44.65c-2.64,-1.38 -5.75,-5.12 -8.59,-7.58 -3.94,-3.41 -8.19,4.29 -8.17,4.91 0.06,1.91 6.36,6.8 7.63,8.11 9.78,10.12 9.17,9.84 19.28,-1.89l15.15 -16.92c0.81,-1.7 -0.41,-2.74 -1.27,-3.55 -3.8,-3.58 -5.07,-4.03 -9.29,0.93l-14.74 15.98zm46.37 -62.08c1.48,-1.02 9.86,-2.41 15.02,-5.31 8.31,-4.67 0.68,-3.16 13.91,2.11 3.5,1.4 7.56,1.97 10.85,3.23 1.01,9.16 0.4,19.13 -3.45,25.95 -2.68,4.74 -12.39,13.38 -16.37,13.12 -4.43,-0.3 -13.85,-8.24 -16.49,-13.09 -1.74,-3.2 -3.06,-6.67 -3.53,-11.03 -0.31,-2.83 -0.42,-12.36 0.05,-14.97zm-4.11 0c0,17.61 -1.9,26.32 14.46,38.65 8.75,6.59 10.58,6.5 18.98,0.26 15.58,-11.6 14.92,-20.74 14.64,-38.93 -0.13,-7.99 -2.29,-0.35 -20.84,-10.67 -6.71,-3.74 -0.21,-2.18 -13.41,3.4 -13.05,5.52 -13.82,-0.64 -13.82,7.28zm-106.17 54.85l0.14 22.48c0.19,2.65 1.39,2.05 4.15,2.05l21.85 -0.14c0.46,-1.98 -2.39,-11.06 -2.63,-14.54 -0.19,-2.8 -0.18,-5.59 -0.27,-8.39 -0.16,-5.36 0.59,-6.93 -2.41,-6.18 -2.03,3.7 2.3,8.65 -3.66,8.44l-3.04 -0.22c-0.21,-1.56 -0.16,-3.46 -0.14,-5.19 0.04,-3.57 0.43,-3.3 -4.71,-3.3 -2.13,0 -5.02,-0.02 -7.09,0.12 -2.83,0.2 -2.18,1.91 -2.18,4.87zm128.36 -38.02c3.72,-2.17 5.61,-6.13 8.67,-8.95 1.97,0.25 2.99,1.02 4,1.97 -0.23,2.12 -4.46,5.7 -6.1,7.35 -2.06,2.09 -4.02,4.46 -6.42,6.33 -2.1,-1.05 -7.11,-5.45 -8.03,-7.75 0.62,-1.73 1.15,-2.29 2.65,-2.92 1.74,0.67 3.65,2.89 5.23,3.96zm-14.59 -14.15c-0.64,5.1 -0.13,16.15 1.93,20.13 1.13,2.18 3.44,5.09 4.76,6.45 1.97,2.05 4.06,3.31 6.7,4.94 3.67,2.27 4.17,1.52 7.33,-0.84 11.68,-8.71 12.93,-13.24 12.27,-28.83 -0.18,-4.32 -4.44,-1.4 -13.42,-6.86 -4.7,-2.85 -3.73,-1.03 -9.4,1.46 -2.69,1.18 -8.26,2.42 -10.17,3.54zm0.93 49.68l0 20.77c0,5.98 -1.06,6.25 4.69,6.25 7.25,0 19.73,0.26 26.38,-0.1 1.07,-1.96 0.75,-25.41 0.39,-28.67 -4.11,-0.49 -8.71,-0.3 -12.87,-0.12 0.1,3.96 0.83,7.89 -1.57,8.41 -1.64,0.35 -3.57,0.02 -4.99,-0.59 -0.25,-1.4 -0.23,-2.46 -0.21,-3.87 0,-0.58 0.05,-1.56 0.01,-2.1l-0.41 -1.82 -10.05 -0.16c-1.7,0.31 -1.38,0.04 -1.38,1.99zm-12.88 35.37c12.74,0.38 36.1,-0.41 46.38,0.24 11.73,0.74 11.71,11.62 7.77,15.51 -2.45,2.42 -6.23,3.11 -10.82,3.11 -13.19,0 -98.31,-0.39 -99.59,0.34 -0.83,0.69 -2.51,2.86 -2.46,4.24l104.96 0.05c21.38,0 19.13,-28.1 0.42,-28.1l-41.58 0c-1.76,0 -2.46,0.17 -3.31,1.22 -0.54,0.67 -1.55,2.36 -1.77,3.39zm-63.57 -3c-0.55,1.52 -5.27,7.32 -6.42,8.73 -8.16,0.73 -6.27,0.82 -14.38,11.13l-22.77 28.73c-2.87,4.72 -0.55,13.29 8.53,14.81 3.9,0.66 6.95,-1.72 8.48,-3.61l16.95 -21.69c2,-2.54 3.54,-4.63 5.52,-7.36 1.84,-2.54 3.87,-4.64 5.72,-7.16 4.32,-5.89 -1.27,-4.67 1.43,-8.95l5.83 -7.01c2.57,0.18 12.98,8.49 31.39,3.92 20.51,-5.11 32.69,-24.62 29.51,-46.65 -1.55,-10.76 -9.17,-19.35 -14.7,-23.99 -11.29,-9.49 -29.62,-11.62 -44.2,-4.47 -8.82,4.32 -14.6,11.35 -18.64,20.01 -4.46,9.57 -4.53,22.55 -0.02,31.96 3.84,8.01 4.46,6.92 7.77,11.61z"/>
  <path class="fil1" d="M121.3 0c33.5,0 63.83,13.58 85.78,35.53 21.94,21.95 35.53,52.28 35.53,85.77 0,33.5 -13.58,63.82 -35.53,85.78 -21.95,21.95 -52.28,35.53 -85.78,35.53 -33.49,0 -63.82,-13.58 -85.77,-35.53 -21.95,-21.95 -35.53,-52.28 -35.53,-85.78 0,-33.5 13.57,-63.82 35.53,-85.77 21.95,-21.95 52.28,-35.53 85.77,-35.53zm80.84 40.47c-20.68,-20.69 -49.26,-33.48 -80.84,-33.48 -31.56,0 -60.15,12.8 -80.83,33.48 -20.69,20.68 -33.49,49.27 -33.49,80.84 0,31.57 12.8,60.16 33.49,80.84 20.68,20.68 49.27,33.48 80.83,33.48 31.57,0 60.16,-12.8 80.84,-33.48 20.69,-20.68 33.49,-49.27 33.49,-80.84 0,-31.57 -12.8,-60.15 -33.49,-80.84z"/>
 </g>
</svg>
