<?xml version="1.0" encoding="UTF-8"?>
<!DOCTYPE svg PUBLIC "-//W3C//DTD SVG 1.1//EN" "http://www.w3.org/Graphics/SVG/1.1/DTD/svg11.dtd">
<!-- Creator: CorelDRAW 2020 (64-Bit) -->
<svg xmlns="http://www.w3.org/2000/svg" xml:space="preserve" width="4.017mm" height="4.017mm" version="1.1" style="shape-rendering:geometricPrecision; text-rendering:geometricPrecision; image-rendering:optimizeQuality; fill-rule:evenodd; clip-rule:evenodd"
viewBox="0 0 15.1 15.1"
 xmlns:xlink="http://www.w3.org/1999/xlink"
 xmlns:xodm="http://www.corel.com/coreldraw/odm/2003">
 <defs>
  <style type="text/css">
   <![CDATA[
    .fil0 {fill:#EF7F1A}
    .fil1 {fill:#FEFEFE;fill-rule:nonzero}
   ]]>
  </style>
 </defs>
 <g id="Layer_x0020_1">
  <metadata id="CorelCorpID_0Corel-Layer"/>
  <path class="fil0" d="M7.55 0c4.17,0 7.55,3.38 7.55,7.55 0,4.17 -3.38,7.55 -7.55,7.55 -4.17,0 -7.55,-3.38 -7.55,-7.55 0,-4.17 3.38,-7.55 7.55,-7.55z"/>
  <path class="fil1" d="M12.76 6.29l-4.68 -3.3c-0.24,-0.17 -0.56,-0.17 -0.8,0l-4.94 3.5c-0.32,0.23 -0.4,0.68 -0.18,1.02 0.14,0.21 0.36,0.32 0.58,0.32 0.14,0 0.28,-0.04 0.4,-0.13l4.53 -3.22 4.28 3.02c0.32,0.23 0.76,0.14 0.99,-0.19 0.22,-0.34 0.14,-0.79 -0.19,-1.01z"/>
  <polygon class="fil1" points="3.87,7.75 3.87,12.24 6.69,12.24 6.69,9.1 8.79,9.1 8.79,12.24 11.51,12.24 11.51,7.75 7.68,5.08 "/>
 </g>
</svg>
