<?xml version="1.0" encoding="UTF-8"?>
<!DOCTYPE svg PUBLIC "-//W3C//DTD SVG 1.1//EN" "http://www.w3.org/Graphics/SVG/1.1/DTD/svg11.dtd">
<!-- Creator: CorelDRAW 2020 (64-Bit) -->
<svg xmlns="http://www.w3.org/2000/svg" xml:space="preserve" width="4.017mm" height="4.0169mm" version="1.1" style="shape-rendering:geometricPrecision; text-rendering:geometricPrecision; image-rendering:optimizeQuality; fill-rule:evenodd; clip-rule:evenodd"
viewBox="0 0 9.37 9.37"
 xmlns:xlink="http://www.w3.org/1999/xlink"
 xmlns:xodm="http://www.corel.com/coreldraw/odm/2003">
 <defs>
  <style type="text/css">
   <![CDATA[
    .fil0 {fill:#EF7F1A}
    .fil1 {fill:#FEFEFE;fill-rule:nonzero}
   ]]>
  </style>
 </defs>
 <g id="Layer_x0020_1">
  <metadata id="CorelCorpID_0Corel-Layer"/>
  <path class="fil0" d="M4.69 0c2.59,0 4.69,2.1 4.69,4.69 0,2.59 -2.1,4.69 -4.69,4.69 -2.59,0 -4.69,-2.1 -4.69,-4.69 0,-2.59 2.1,-4.69 4.69,-4.69z"/>
  <path class="fil1" d="M1.99 2.56c-0.22,0.21 -0.33,0.49 -0.33,0.77 0,0.28 0.11,0.56 0.33,0.77l3.3 3.22c0.22,0.21 0.5,0.32 0.79,0.32 0.29,-0 0.57,-0.11 0.79,-0.32l0.01 -0.01 0.8 -0.59c0.01,-0.01 0.03,-0.02 0.03,-0.04 0.01,-0.01 0.01,-0.03 0.01,-0.05 0,-0.03 -0.01,-0.06 -0.03,-0.08l-1.04 -1.02c-0.02,-0.02 -0.05,-0.03 -0.08,-0.03 -0.02,0 -0.03,0 -0.05,0.01 -0.02,0.01 -0.03,0.02 -0.04,0.03l-0.76 0.94 -2.86 -2.8 0.97 -0.74c0.02,-0.01 0.03,-0.02 0.03,-0.04 0.01,-0.02 0.01,-0.03 0.01,-0.05 -0,-0.03 -0.01,-0.06 -0.03,-0.08l-1.04 -1.02 -0 -0c-0.02,-0.02 -0.05,-0.03 -0.08,-0.03 -0.02,0 -0.04,0 -0.05,0.01 -0.02,0.01 -0.03,0.02 -0.04,0.03l-0.61 0.78 -0.01 0.01z"/>
 </g>
</svg>
